<?xml version="1.0" encoding="utf-8"?>
<!-- Uploaded to: SVG Repo, www.svgrepo.com, Generator: SVG Repo Mixer Tools -->
<svg width="800px" height="800px" viewBox="0 0 1024 1024" class="icon"  version="1.1" xmlns="http://www.w3.org/2000/svg"><path d="M640 234.666667H384a21.333333 21.333333 0 0 1-21.333333-21.333334V85.333333a21.333333 21.333333 0 0 1 21.333333-21.333333h256a21.333333 21.333333 0 0 1 21.333333 21.333333v128a21.333333 21.333333 0 0 1-21.333333 21.333334z" fill="#EFD358" /><path d="M896 490.666667H128a21.290667 21.290667 0 0 1-20.245333-28.074667l70.762666-212.266667A85.205333 85.205333 0 0 1 259.456 192h505.088c36.8 0 69.333333 23.466667 80.938667 58.346667l70.762666 212.245333A21.333333 21.333333 0 0 1 896 490.666667z" fill="#444444" /><path d="M157.589333 448l61.397334-184.170667A42.602667 42.602667 0 0 1 259.456 234.666667h505.088c18.389333 0 34.645333 11.733333 40.469333 29.162666L866.410667 448H157.589333z" fill="#E6E6E6" /><path d="M874.666667 448H149.333333a128 128 0 0 0-128 128v234.666667a21.333333 21.333333 0 0 0 21.333334 21.333333h938.666666a21.333333 21.333333 0 0 0 21.333334-21.333333V576a128 128 0 0 0-128-128z" fill="#5B5B5B" /><path d="M149.333333 576m-64 0a64 64 0 1 0 128 0 64 64 0 1 0-128 0Z" fill="#FFFFFF" /><path d="M874.666667 576m-64 0a64 64 0 1 0 128 0 64 64 0 1 0-128 0Z" fill="#FFFFFF" /><path d="M638.144 768H385.856a21.333333 21.333333 0 0 1-21.269333-23.104l17.792-213.333333A21.333333 21.333333 0 0 1 403.626667 512h216.746666a21.333333 21.333333 0 0 1 21.248 19.562667l17.792 213.333333A21.333333 21.333333 0 0 1 638.144 768z" fill="#444444" /><path d="M638.144 789.333333H385.856a42.709333 42.709333 0 0 1-42.538667-46.186666l17.813334-213.354667A42.88 42.88 0 0 1 403.626667 490.666667h216.746666c22.016 0 40.682667 17.194667 42.517334 39.125333l17.770666 213.333333A42.709333 42.709333 0 0 1 638.144 789.333333zM403.626667 533.333333l-17.792 213.333334h252.352l-17.813334-213.333334H403.626667z" fill="#E6E6E6" /><path d="M192 960H106.666667a42.666667 42.666667 0 0 1-42.666667-42.666667v-85.333333h170.666667v85.333333a42.666667 42.666667 0 0 1-42.666667 42.666667zM917.333333 960h-85.333333a42.666667 42.666667 0 0 1-42.666667-42.666667v-85.333333h170.666667v85.333333a42.666667 42.666667 0 0 1-42.666667 42.666667z" fill="#444444" /><path d="M192 789.333333H106.666667a21.333333 21.333333 0 1 1 0-42.666666h85.333333a21.333333 21.333333 0 1 1 0 42.666666zM917.333333 789.333333h-85.333333a21.333333 21.333333 0 0 1 0-42.666666h85.333333a21.333333 21.333333 0 0 1 0 42.666666z" fill="#EA9860" /><path d="M405.333333 106.666667h213.333334v85.333333H405.333333z" fill="#D8BC48" /></svg>